<?xml version="1.0" encoding="UTF-8"?>
<svg width="145px" height="154px" viewBox="0 0 145 154" version="1.1" xmlns="http://www.w3.org/2000/svg" xmlns:xlink="http://www.w3.org/1999/xlink">
    <title>ic-manage</title>
    <defs>
        <ellipse id="path-1" cx="35.2413793" cy="35.3563218" rx="12.6436782" ry="17.0114943"></ellipse>
        <filter x="-373.7%" y="-242.5%" width="847.4%" height="655.5%" filterUnits="objectBoundingBox" id="filter-2">
            <feOffset dx="0" dy="12" in="SourceAlpha" result="shadowOffsetOuter1"></feOffset>
            <feGaussianBlur stdDeviation="29.5" in="shadowOffsetOuter1" result="shadowBlurOuter1"></feGaussianBlur>
            <feColorMatrix values="0 0 0 0 0   0 0 0 0 0   0 0 0 0 0  0 0 0 0.35 0" type="matrix" in="shadowBlurOuter1"></feColorMatrix>
        </filter>
        <linearGradient x1="50%" y1="0%" x2="50%" y2="100%" id="linearGradient-3">
            <stop stop-color="#C7C7C7" offset="0%"></stop>
            <stop stop-color="#FFFFFF" offset="100%"></stop>
        </linearGradient>
        <linearGradient x1="50%" y1="0%" x2="50%" y2="100%" id="linearGradient-4">
            <stop stop-color="#C7C7C7" offset="0%"></stop>
            <stop stop-color="#FFFFFF" offset="100%"></stop>
        </linearGradient>
        <linearGradient x1="50%" y1="0%" x2="50%" y2="100%" id="linearGradient-5">
            <stop stop-color="#CB3C45" offset="0%"></stop>
            <stop stop-color="#9B1C21" offset="100%"></stop>
        </linearGradient>
        <linearGradient x1="50%" y1="0%" x2="50%" y2="100%" id="linearGradient-6">
            <stop stop-color="#D9434A" offset="0%"></stop>
            <stop stop-color="#B22024" offset="100%"></stop>
        </linearGradient>
        <linearGradient x1="50%" y1="0%" x2="50%" y2="100%" id="linearGradient-7">
            <stop stop-color="#CB3C45" offset="0%"></stop>
            <stop stop-color="#9B1C21" offset="100%"></stop>
        </linearGradient>
        <linearGradient x1="0.113772455%" y1="50.8083333%" x2="99.8479042%" y2="50.8083333%" id="linearGradient-8">
            <stop stop-color="#ED1C24" offset="0%"></stop>
            <stop stop-color="#771F2E" offset="100%"></stop>
        </linearGradient>
        <linearGradient x1="-0.0751431156%" y1="49.9623834%" x2="99.9769835%" y2="49.9623834%" id="linearGradient-9">
            <stop stop-color="#ED1C24" offset="0%"></stop>
            <stop stop-color="#771F2E" offset="100%"></stop>
        </linearGradient>
        <linearGradient x1="-0.0648466502%" y1="49.9627677%" x2="99.9872799%" y2="49.9627677%" id="linearGradient-10">
            <stop stop-color="#ED1C24" offset="0%"></stop>
            <stop stop-color="#771F2E" offset="100%"></stop>
        </linearGradient>
        <linearGradient x1="50%" y1="0%" x2="50%" y2="100%" id="linearGradient-11">
            <stop stop-color="#B32B3A" offset="0%"></stop>
            <stop stop-color="#7C131B" offset="100%"></stop>
        </linearGradient>
        <linearGradient x1="50%" y1="0%" x2="50%" y2="100%" id="linearGradient-12">
            <stop stop-color="#CB3C45" offset="0%"></stop>
            <stop stop-color="#9B1C21" offset="100%"></stop>
        </linearGradient>
        <linearGradient x1="50%" y1="0%" x2="50%" y2="100%" id="linearGradient-13">
            <stop stop-color="#656666" offset="0%"></stop>
            <stop stop-color="#353636" offset="100%"></stop>
        </linearGradient>
        <linearGradient x1="50%" y1="0%" x2="50%" y2="100%" id="linearGradient-14">
            <stop stop-color="#656666" offset="0%"></stop>
            <stop stop-color="#353636" offset="100%"></stop>
        </linearGradient>
    </defs>
    <g id="Home-Page" stroke="none" stroke-width="1" fill="none" fill-rule="evenodd">
        <g transform="translate(-122.000000, -923.000000)" id="ic-manage">
            <g transform="translate(150.000000, 940.000000)" id="icon_comprehensive">
                <rect id="Rectangle" fill-rule="nonzero" x="0" y="0" width="80" height="80"></rect>
                <g id="icon-01" transform="translate(9.586207, 12.919540)">
                    <g id="Group" stroke="#FFFFFF" stroke-linecap="round" stroke-linejoin="round" stroke-width="1.17647059">
                        <circle id="Oval" cx="1.68183908" cy="5.35172414" r="1.59448276"></circle>
                        <circle id="Oval" cx="61.3342529" cy="40.7742529" r="1.59448276"></circle>
                        <polygon id="Path" points="55.737931 1.13103448 54.7687356 1.6937931 53.7995402 2.25655172 53.7995402 1.13103448 53.7995402 0.00551724138 54.7687356 0.568275862"></polygon>
                        <g transform="translate(4.151724, 53.029885)" id="Path">
                            <line x1="3.28275862" y1="1.53195402" x2="0.218850575" y2="1.53195402"></line>
                            <line x1="1.7508046" y1="0" x2="1.7508046" y2="3.06390805"></line>
                        </g>
                    </g>
                    <g id="Oval" fill-rule="nonzero" fill="black" fill-opacity="1">
                        <use filter="url(#filter-2)" xlink:href="#path-1"></use>
                    </g>
                    <g id="Group" transform="translate(10.091954, 3.632184)">
                        <circle id="Oval" fill="url(#linearGradient-3)" transform="translate(9.941156, 9.655168) rotate(-13.285796) translate(-9.941156, -9.655168) " cx="9.94115605" cy="9.65516837" r="3.37642726"></circle>
                        <circle id="Oval" fill="url(#linearGradient-4)" transform="translate(8.650410, 27.264920) rotate(-45.000000) translate(-8.650410, -27.264920) " cx="8.65040975" cy="27.2649205" r="2.15722069"></circle>
                        <g>
                            <g transform="translate(10.317241, 5.002299)">
                                <path d="M17.1328736,37.9862069 L13.2248276,37.9862069 C12.8496552,37.9862069 12.5682759,38.2675862 12.5682759,38.6427586 L12.5682759,39.2993103 C12.5682759,40.7374713 13.7250575,41.8942529 15.1632184,41.8942529 C16.6013793,41.8942529 17.7581609,40.7374713 17.7581609,39.2993103 L17.7581609,38.6427586 C17.7894253,38.2675862 17.508046,37.9862069 17.1328736,37.9862069 Z" id="Path" fill="url(#linearGradient-5)"></path>
                                <path d="M25.4491954,4.28321839 C22.4165517,1.43816092 18.4147126,2.77555756e-17 14.2565517,0.250114943 C6.62804598,0.71908046 0.500229885,7.06574713 0.250114943,14.7255172 C0.0625287356,20.3843678 3.03264368,25.6055172 8.00367816,28.3255172 C9.22298851,29.0133333 10.0045977,30.2951724 10.0045977,31.7333333 L10.0045977,36.7043678 C10.0045977,38.1425287 11.1613793,39.2993103 12.5995402,39.2993103 L17.8206897,39.2993103 C19.2588506,39.2993103 20.4156322,38.1425287 20.4156322,36.7043678 L20.4156322,31.7333333 C20.4156322,30.3264368 21.1972414,29.0133333 22.4165517,28.3255172 C27.2,25.6993103 30.1701149,20.6657471 30.1701149,15.2257471 C30.1701149,11.0988506 28.4505747,7.12827586 25.4491954,4.28321839 Z" id="Path" fill="url(#linearGradient-6)"></path>
                                <circle id="Oval" fill="url(#linearGradient-7)" cx="15.1944828" cy="15.1944828" r="10.4110345"></circle>
                                <path d="M17.4767816,19.1025287 C16.6013793,19.1025287 16.1636782,18.6022989 15.8510345,18.2271264 C15.5696552,17.9144828 15.4445977,17.7894253 15.1944828,17.7894253 C14.9443678,17.7894253 14.8193103,17.8832184 14.537931,18.2271264 C14.2252874,18.5710345 13.7875862,19.1025287 12.9121839,19.1025287 C12.0367816,19.1025287 11.5990805,18.5710345 11.2864368,18.2271264 C11.0050575,17.9144828 10.88,17.7894253 10.6298851,17.7894253 C10.2547126,17.7894253 9.97333333,17.508046 9.97333333,17.1328736 C9.97333333,16.7577011 10.2547126,16.4763218 10.6298851,16.4763218 C11.5052874,16.4763218 11.9429885,17.0078161 12.2556322,17.3517241 C12.5370115,17.6643678 12.662069,17.7894253 12.9121839,17.7894253 C13.1622989,17.7894253 13.2873563,17.6956322 13.5687356,17.3517241 C13.8813793,17.0078161 14.3190805,16.4763218 15.1944828,16.4763218 C16.0698851,16.4763218 16.5075862,16.9765517 16.8202299,17.3517241 C17.1016092,17.6643678 17.2266667,17.7894253 17.4767816,17.7894253 C17.7268966,17.7894253 17.851954,17.6956322 18.1333333,17.3517241 C18.445977,17.0078161 18.8836782,16.4763218 19.7590805,16.4763218 C20.1342529,16.4763218 20.4156322,16.7577011 20.4156322,17.1328736 C20.4156322,17.508046 20.1342529,17.7894253 19.7590805,17.7894253 C19.5089655,17.7894253 19.383908,17.8832184 19.1025287,18.2271264 C18.7898851,18.6022989 18.3209195,19.1025287 17.4767816,19.1025287 Z" id="Path" fill="url(#linearGradient-8)"></path>
                                <path d="M13.2248276,31.4832184 C12.9121839,31.4832184 12.662069,31.2643678 12.5995402,30.9829885 L9.34804598,16.0073563 C9.28551724,15.6634483 9.50436782,15.3195402 9.84827586,15.2257471 C10.1921839,15.1632184 10.536092,15.382069 10.6298851,15.725977 L13.8813793,30.7016092 C13.943908,31.0455172 13.7250575,31.3894253 13.3811494,31.4832184 C13.3186207,31.4832184 13.2873563,31.4832184 13.2248276,31.4832184 Z" id="Path" fill="url(#linearGradient-9)"></path>
                                <path d="M17.1328736,31.4832184 C17.1016092,31.4832184 17.0390805,31.4832184 17.0078161,31.4832184 C16.663908,31.4206897 16.4450575,31.0455172 16.5075862,30.7016092 L19.7590805,15.725977 C19.8216092,15.382069 20.1655172,15.1632184 20.5406897,15.2257471 C20.8845977,15.2882759 21.1034483,15.6634483 21.0409195,16.0073563 L17.7894253,30.9829885 C17.7268966,31.2643678 17.4455172,31.4832184 17.1328736,31.4832184 Z" id="Path" fill="url(#linearGradient-10)"></path>
                                <path d="M9.87954023,30.8266667 C9.94206897,31.108046 10.0045977,31.4206897 10.0045977,31.7333333 L10.0045977,36.7043678 C10.0045977,38.1425287 11.1613793,39.2993103 12.5995402,39.2993103 L17.8206897,39.2993103 C19.2588506,39.2993103 20.4156322,38.1425287 20.4156322,36.7043678 L20.4156322,31.7333333 C20.4156322,31.4206897 20.4468966,31.1393103 20.5406897,30.8266667 L9.87954023,30.8266667 L9.87954023,30.8266667 Z" id="Path" fill="url(#linearGradient-11)"></path>
                                <polygon id="Path" fill="url(#linearGradient-12)" points="15.725977 32.7963218 15.1944828 32.7963218 9.97333333 32.7963218 9.97333333 34.0781609 15.1944828 34.0781609 15.725977 34.0781609 20.3843678 34.0781609 20.3843678 32.7963218"></polygon>
                                <polygon id="Path" fill="url(#linearGradient-12)" points="15.725977 35.3912644 15.1944828 35.3912644 9.97333333 35.3912644 9.97333333 36.6731034 15.1944828 36.6731034 15.725977 36.6731034 20.3843678 36.6731034 20.3843678 35.3912644"></polygon>
                            </g>
                            <path d="M13.256092,24.2611494 L13.8188506,23.6983908 L12.3181609,22.1977011 L11.7554023,22.7604598 C11.1926437,22.3852874 10.536092,22.103908 9.81701149,21.9788506 L9.81701149,21.1034483 L7.65977011,21.1034483 L7.65977011,21.9788506 C6.94068966,22.1351724 6.28413793,22.4165517 5.72137931,22.7604598 L5.15862069,22.1977011 L3.5016092,23.6983908 L4.06436782,24.2611494 C3.6891954,24.823908 3.40781609,25.4804598 3.28275862,26.1995402 L2.40735632,26.1995402 L2.40735632,28.3567816 L3.28275862,28.3567816 C3.43908046,29.0758621 3.72045977,29.7324138 4.06436782,30.2951724 L3.5016092,30.857931 L5.00229885,32.3586207 L5.56505747,31.7958621 C6.12781609,32.1710345 6.78436782,32.4524138 7.50344828,32.5774713 L7.50344828,33.4528736 L9.66068966,33.4528736 L9.66068966,32.5774713 C10.3797701,32.4211494 11.0363218,32.1397701 11.5990805,31.7958621 L12.1618391,32.3586207 L13.6625287,30.857931 L13.2248276,30.2951724 C13.6,29.7324138 13.8813793,29.0758621 14.0064368,28.3567816 L14.8818391,28.3567816 L14.8818391,26.1995402 L14.0689655,26.1995402 C13.9126437,25.4804598 13.6312644,24.823908 13.256092,24.2611494 Z M8.66022989,29.4197701 C7.44091954,29.4197701 6.50298851,28.4818391 6.50298851,27.2625287 C6.50298851,26.0432184 7.44091954,25.1052874 8.66022989,25.1052874 C9.87954023,25.1052874 10.8174713,26.0432184 10.8174713,27.2625287 C10.8174713,28.5131034 9.87954023,29.4197701 8.66022989,29.4197701 Z" id="Shape" fill="url(#linearGradient-13)" fill-rule="nonzero"></path>
                            <path d="M17.1328736,4.93977011 L18.0395402,4.03310345 L15.6947126,1.68827586 L14.788046,2.59494253 C13.8813793,2.03218391 12.8809195,1.59448276 11.7554023,1.34436782 L11.7554023,0 L8.37885057,0 L8.37885057,1.34436782 C7.25333333,1.56321839 6.25287356,2.03218391 5.3462069,2.59494253 L4.43954023,1.68827586 L1.8445977,4.03310345 L2.75126437,4.93977011 C2.18850575,5.84643678 1.7508046,6.84689655 1.50068966,7.97241379 L0.156321839,7.97241379 L0.156321839,11.3489655 L1.50068966,11.3489655 C1.71954023,12.4744828 2.18850575,13.4749425 2.75126437,14.3816092 L1.8445977,15.2882759 L4.18942529,17.6331034 L5.09609195,16.7264368 C6.00275862,17.2891954 7.00321839,17.7268966 8.12873563,17.9770115 L8.12873563,19.3213793 L11.5052874,19.3213793 L11.5052874,17.9770115 C12.6308046,17.7581609 13.6312644,17.2891954 14.537931,16.7264368 L15.4445977,17.6331034 L17.7894253,15.2882759 L17.1016092,14.3816092 C17.6643678,13.4749425 18.102069,12.4744828 18.3521839,11.3489655 L19.6965517,11.3489655 L19.6965517,7.97241379 L18.3521839,7.97241379 C18.1333333,6.84689655 17.6956322,5.84643678 17.1328736,4.93977011 Z M9.94206897,13.0372414 C8.03494253,13.0372414 6.56551724,11.5678161 6.56551724,9.66068966 C6.56551724,7.75356322 8.03494253,6.28413793 9.94206897,6.28413793 C11.8491954,6.28413793 13.3186207,7.75356322 13.3186207,9.66068966 C13.3186207,11.5678161 11.8491954,13.0372414 9.94206897,13.0372414 Z" id="Shape" fill="url(#linearGradient-14)" fill-rule="nonzero"></path>
                        </g>
                    </g>
                </g>
            </g>
        </g>
    </g>
</svg>