<?xml version="1.0" encoding="UTF-8"?>
<svg width="167px" height="159px" viewBox="0 0 167 159" version="1.1" xmlns="http://www.w3.org/2000/svg" xmlns:xlink="http://www.w3.org/1999/xlink">
    <title>ic-consulting</title>
    <defs>
        <ellipse id="path-1" cx="29.2643678" cy="34.8965517" rx="23.6781609" ry="19.7701149"></ellipse>
        <filter x="-199.6%" y="-208.6%" width="499.1%" height="578.0%" filterUnits="objectBoundingBox" id="filter-2">
            <feOffset dx="0" dy="12" in="SourceAlpha" result="shadowOffsetOuter1"></feOffset>
            <feGaussianBlur stdDeviation="29.5" in="shadowOffsetOuter1" result="shadowBlurOuter1"></feGaussianBlur>
            <feColorMatrix values="0 0 0 0 0   0 0 0 0 0   0 0 0 0 0  0 0 0 0.35 0" type="matrix" in="shadowBlurOuter1"></feColorMatrix>
        </filter>
        <linearGradient x1="50%" y1="0%" x2="50%" y2="100%" id="linearGradient-3">
            <stop stop-color="#B32B3A" offset="0%"></stop>
            <stop stop-color="#7C131B" offset="100%"></stop>
        </linearGradient>
        <linearGradient x1="-0.00310679612%" y1="49.9857282%" x2="100.09%" y2="49.9857282%" id="linearGradient-4">
            <stop stop-color="#ED1C24" offset="0%"></stop>
            <stop stop-color="#771F2E" offset="100%"></stop>
        </linearGradient>
        <linearGradient x1="50%" y1="0%" x2="50%" y2="100%" id="linearGradient-5">
            <stop stop-color="#C7C7C7" offset="0%"></stop>
            <stop stop-color="#FFFFFF" offset="100%"></stop>
        </linearGradient>
        <linearGradient x1="50%" y1="0%" x2="50%" y2="100%" id="linearGradient-6">
            <stop stop-color="#C7C7C7" offset="0%"></stop>
            <stop stop-color="#FFFFFF" offset="100%"></stop>
        </linearGradient>
        <linearGradient x1="50%" y1="0%" x2="50%" y2="100%" id="linearGradient-7">
            <stop stop-color="#C7C7C7" offset="0%"></stop>
            <stop stop-color="#FFFFFF" offset="100%"></stop>
        </linearGradient>
        <linearGradient x1="50%" y1="0%" x2="50%" y2="100%" id="linearGradient-8">
            <stop stop-color="#C7C7C7" offset="0%"></stop>
            <stop stop-color="#FFFFFF" offset="100%"></stop>
        </linearGradient>
        <linearGradient x1="50%" y1="0%" x2="50%" y2="100%" id="linearGradient-9">
            <stop stop-color="#656666" offset="0%"></stop>
            <stop stop-color="#353636" offset="100%"></stop>
        </linearGradient>
        <linearGradient x1="50%" y1="0%" x2="50%" y2="100%" id="linearGradient-10">
            <stop stop-color="#656666" offset="0%"></stop>
            <stop stop-color="#353636" offset="100%"></stop>
        </linearGradient>
        <linearGradient x1="50%" y1="0%" x2="50%" y2="100%" id="linearGradient-11">
            <stop stop-color="#D9434A" offset="0%"></stop>
            <stop stop-color="#B22024" offset="100%"></stop>
        </linearGradient>
        <linearGradient x1="50%" y1="0%" x2="50%" y2="100%" id="linearGradient-12">
            <stop stop-color="#656666" offset="0%"></stop>
            <stop stop-color="#353636" offset="100%"></stop>
        </linearGradient>
        <linearGradient x1="50%" y1="0%" x2="50%" y2="100%" id="linearGradient-13">
            <stop stop-color="#C7C7C7" offset="0%"></stop>
            <stop stop-color="#FFFFFF" offset="100%"></stop>
        </linearGradient>
        <linearGradient x1="50%" y1="0%" x2="50%" y2="100%" id="linearGradient-14">
            <stop stop-color="#656666" offset="0%"></stop>
            <stop stop-color="#353636" offset="100%"></stop>
        </linearGradient>
    </defs>
    <g id="Home-Page" stroke="none" stroke-width="1" fill="none" fill-rule="evenodd">
        <g transform="translate(-105.000000, -1380.000000)" id="ic-consulting">
            <g transform="translate(150.000000, 1400.000000)" id="icon_management">
                <rect id="Rectangle" fill-rule="nonzero" x="0" y="0" width="80" height="80"></rect>
                <g id="icon-05" transform="translate(9.586207, 12.919540)">
                    <g id="Group" stroke="#FFFFFF" stroke-linecap="round" stroke-linejoin="round" stroke-width="1.17647059">
                        <circle id="Oval" cx="1.68183908" cy="5.35172414" r="1.59448276"></circle>
                        <circle id="Oval" cx="61.3342529" cy="40.7742529" r="1.59448276"></circle>
                        <polygon id="Path" points="55.737931 1.13103448 54.7687356 1.6937931 53.7995402 2.25655172 53.7995402 1.13103448 53.7995402 0.00551724138 54.7687356 0.568275862"></polygon>
                        <g transform="translate(4.151724, 53.029885)" id="Path">
                            <line x1="3.28275862" y1="1.53195402" x2="0.218850575" y2="1.53195402"></line>
                            <line x1="1.7508046" y1="0" x2="1.7508046" y2="3.06390805"></line>
                        </g>
                    </g>
                    <g id="Oval" fill-rule="nonzero" fill="black" fill-opacity="1">
                        <use filter="url(#filter-2)" xlink:href="#path-1"></use>
                    </g>
                    <g id="Group" transform="translate(6.965517, 6.133333)">
                        <g>
                            <circle id="Oval" fill="url(#linearGradient-3)" cx="20.2593103" cy="20.2593103" r="20.2593103"></circle>
                            <circle id="Oval" fill="url(#linearGradient-4)" cx="20.2593103" cy="20.2593103" r="16.1011494"></circle>
                            <rect id="Rectangle" fill="url(#linearGradient-5)" opacity="0.3" x="19.8216092" y="6.97195402" width="1" height="14.2252874"></rect>
                            <rect id="Rectangle" fill="url(#linearGradient-6)" x="21.2285057" y="19.6965517" width="12.8809195" height="1.12551724"></rect>
                            <polygon id="Rectangle" fill="url(#linearGradient-7)" transform="translate(20.256793, 15.661345) rotate(-0.629330) translate(-20.256793, -15.661345) " points="19.6940571 11.0969285 20.8195297 11.0969285 20.8195297 20.2257617 19.6940571 20.2257617"></polygon>
                            <circle id="Oval" fill="url(#linearGradient-8)" cx="20.2593103" cy="20.2593103" r="1.71954023"></circle>
                            <g opacity="0.1" transform="translate(4.064368, 4.064368)" fill="#010101" id="Path">
                                <path d="M1.34436782,18.1333333 C1.34436782,9.22298851 8.56643678,2.03218391 17.4455172,2.03218391 C22.5103448,2.03218391 27.2937931,4.40827586 30.3264368,8.47264368 C27.5751724,3.5016092 22.2914943,0.125057471 16.1949425,0.125057471 C7.2845977,0.125057471 0.0937931034,7.34712644 0.0937931034,16.2262069 C0.0937931034,19.7278161 1.21931034,23.1356322 3.34528736,25.9181609 C2.03218391,23.5108046 1.34436782,20.822069 1.34436782,18.1333333 Z"></path>
                            </g>
                        </g>
                        <g transform="translate(24.698851, 8.128736)">
                            <path d="M6.81563218,21.9788506 C6.69057471,21.9475862 6.59678161,21.9163218 6.47172414,21.9163218 C3.81425287,21.6662069 0.875402299,27.5126437 0.875402299,27.5126437 L0.218850575,27.1687356 C0.218850575,27.1687356 1.28183908,24.5737931 2.18850575,20.571954 C3.00137931,16.9765517 7.78482759,15.7885057 8.72275862,15.5696552 C8.81655172,15.5383908 8.87908046,15.5383908 8.87908046,15.5383908 C11.6303448,18.445977 6.81563218,21.9788506 6.81563218,21.9788506 Z" id="Path" fill="url(#linearGradient-9)"></path>
                            <path d="M17.4767816,28.2942529 C14.788046,31.3894253 13.3186207,33.7655172 13.3186207,33.7655172 L12.662069,33.4216092 C12.662069,33.4216092 15.7885057,27.3875862 13.7563218,25.4804598 C13.7250575,25.4491954 13.6625287,25.3866667 13.6312644,25.3554023 C13.6312644,25.3554023 13.6625287,19.4151724 17.6018391,19.8841379 C17.6018391,19.8841379 17.6331034,19.9154023 17.6643678,20.0091954 C18.0082759,20.8533333 19.9154023,25.4804598 17.4767816,28.2942529 Z" id="Path" fill="url(#linearGradient-10)"></path>
                            <path d="M6.81563218,21.9788506 C6.69057471,21.9475862 6.59678161,21.9163218 6.47172414,21.9163218 C7.06574713,19.7590805 7.81609195,17.6331034 8.72275862,15.5696552 C8.81655172,15.5383908 8.87908046,15.5383908 8.87908046,15.5383908 C11.6303448,18.445977 6.81563218,21.9788506 6.81563218,21.9788506 Z" id="Path" fill="#010101" opacity="0.1"></path>
                            <path d="M17.6331034,20.0404598 C16.4763218,21.9788506 15.1632184,23.7921839 13.7250575,25.5117241 C13.6937931,25.4804598 13.6312644,25.417931 13.6,25.3866667 C13.6,25.3866667 13.6312644,19.4464368 17.5705747,19.9154023 C17.5705747,19.9154023 17.6018391,19.977931 17.6331034,20.0404598 Z" id="Path" fill="#010101" opacity="0.1"></path>
                            <path d="M12.9747126,26.2308046 C12.2868966,27.0124138 11.5365517,27.8252874 10.7549425,28.6068966 C10.285977,28.982069 8.50390805,29.3885057 5.72137931,26.0432184 C5.72137931,26.0432184 5.87770115,24.8551724 6.34666667,22.9793103 C7.3783908,18.7898851 9.97333333,11.1613793 15.8822989,4.93977011 C17.6643678,3.06390805 19.6652874,1.43816092 21.8225287,0.0625287356 C21.8225287,0.0625287356 22.6041379,3.15770115 21.8850575,8.00367816 C21.165977,12.8183908 18.9462069,19.3526437 12.9747126,26.2308046 Z" id="Path" fill="url(#linearGradient-11)"></path>
                            <circle id="Oval" fill="url(#linearGradient-12)" cx="15.976092" cy="12.3181609" r="3.31402299"></circle>
                            <path d="M18.0708046,13.3811494 C17.4767816,14.537931 16.0698851,15.0068966 14.9131034,14.4128736 C14.4441379,14.1627586 14.0377011,13.7563218 13.8188506,13.256092 C13.7250575,13.0685057 13.6625287,12.8496552 13.6312644,12.6308046 C13.6312644,12.5370115 13.6,12.4432184 13.6,12.3494253 C13.6,11.9742529 13.6937931,11.5990805 13.8501149,11.2551724 C13.8501149,11.223908 13.8813793,11.223908 13.8813793,11.1926437 C14.3816092,10.285977 15.382069,9.81701149 16.4137931,10.0045977 C16.6013793,10.0358621 16.7889655,10.0983908 16.9452874,10.1921839 L17.0078161,10.2234483 C18.1958621,10.8174713 18.6648276,12.2243678 18.0708046,13.3811494 C18.0708046,13.3811494 18.0708046,13.3811494 18.0708046,13.3811494 Z" id="Path" fill="url(#linearGradient-13)"></path>
                            <path d="M12.9747126,26.2308046 C12.5057471,26.7622989 12.0055172,27.2937931 11.5052874,27.8565517 C11.2551724,28.1066667 11.0050575,28.3567816 10.7549425,28.6381609 C10.3797701,29.0133333 8.50390805,29.4197701 5.72137931,26.0744828 C5.72137931,26.0744828 5.78390805,25.6993103 5.90896552,25.0114943 C6.00275862,24.5112644 6.15908046,23.8234483 6.34666667,23.0105747 C6.34666667,23.0105747 7.3783908,24.2611494 9.25425287,25.1990805 C10.4110345,25.7618391 11.6616092,26.1057471 12.9747126,26.2308046 Z" id="Path" fill="url(#linearGradient-14)"></path>
                        </g>
                    </g>
                </g>
            </g>
        </g>
    </g>
</svg>