<?xml version="1.0" encoding="UTF-8"?>
<svg width="171px" height="149px" viewBox="0 0 171 149" version="1.1" xmlns="http://www.w3.org/2000/svg" xmlns:xlink="http://www.w3.org/1999/xlink">
    <title>ic-web</title>
    <defs>
        <rect id="path-1" x="5.12643678" y="21.1034483" width="51.0344828" height="28.9655172" rx="14.4827586"></rect>
        <filter x="-185.2%" y="-284.8%" width="470.3%" height="752.5%" filterUnits="objectBoundingBox" id="filter-2">
            <feOffset dx="0" dy="12" in="SourceAlpha" result="shadowOffsetOuter1"></feOffset>
            <feGaussianBlur stdDeviation="29.5" in="shadowOffsetOuter1" result="shadowBlurOuter1"></feGaussianBlur>
            <feColorMatrix values="0 0 0 0 0   0 0 0 0 0   0 0 0 0 0  0 0 0 0.35 0" type="matrix" in="shadowBlurOuter1"></feColorMatrix>
        </filter>
        <linearGradient x1="50%" y1="0%" x2="50%" y2="100%" id="linearGradient-3">
            <stop stop-color="#656666" offset="0%"></stop>
            <stop stop-color="#353636" offset="100%"></stop>
        </linearGradient>
        <linearGradient x1="50%" y1="0%" x2="50%" y2="100%" id="linearGradient-4">
            <stop stop-color="#B32B3A" offset="0%"></stop>
            <stop stop-color="#7C131B" offset="100%"></stop>
        </linearGradient>
        <linearGradient x1="50%" y1="0%" x2="50%" y2="100%" id="linearGradient-5">
            <stop stop-color="#656666" offset="0%"></stop>
            <stop stop-color="#353636" offset="100%"></stop>
        </linearGradient>
        <linearGradient x1="50%" y1="0%" x2="50%" y2="100%" id="linearGradient-6">
            <stop stop-color="#B32B3A" offset="0%"></stop>
            <stop stop-color="#7C131B" offset="100%"></stop>
        </linearGradient>
        <linearGradient x1="0.00358078603%" y1="50.0277322%" x2="99.9835808%" y2="50.0277322%" id="linearGradient-7">
            <stop stop-color="#ED1C24" offset="0%"></stop>
            <stop stop-color="#771F2E" offset="100%"></stop>
        </linearGradient>
        <linearGradient x1="50%" y1="0%" x2="50%" y2="100%" id="linearGradient-8">
            <stop stop-color="#C7C7C7" offset="0%"></stop>
            <stop stop-color="#FFFFFF" offset="100%"></stop>
        </linearGradient>
        <linearGradient x1="50%" y1="0%" x2="50%" y2="100%" id="linearGradient-9">
            <stop stop-color="#C7C7C7" offset="0%"></stop>
            <stop stop-color="#FFFFFF" offset="100%"></stop>
        </linearGradient>
        <linearGradient x1="50%" y1="0%" x2="50%" y2="100%" id="linearGradient-10">
            <stop stop-color="#C7C7C7" offset="0%"></stop>
            <stop stop-color="#FFFFFF" offset="100%"></stop>
        </linearGradient>
        <linearGradient x1="50%" y1="0%" x2="50%" y2="100%" id="linearGradient-11">
            <stop stop-color="#B32B3A" offset="0%"></stop>
            <stop stop-color="#7C131B" offset="100%"></stop>
        </linearGradient>
        <linearGradient x1="50%" y1="0%" x2="50%" y2="100%" id="linearGradient-12">
            <stop stop-color="#CB3C45" offset="0%"></stop>
            <stop stop-color="#9B1C21" offset="100%"></stop>
        </linearGradient>
        <linearGradient x1="50%" y1="0%" x2="50%" y2="100%" id="linearGradient-13">
            <stop stop-color="#B32B3A" offset="0%"></stop>
            <stop stop-color="#7C131B" offset="100%"></stop>
        </linearGradient>
        <linearGradient x1="50%" y1="0%" x2="50%" y2="100%" id="linearGradient-14">
            <stop stop-color="#B32B3A" offset="0%"></stop>
            <stop stop-color="#7C131B" offset="100%"></stop>
        </linearGradient>
        <linearGradient x1="50%" y1="0%" x2="50%" y2="100%" id="linearGradient-15">
            <stop stop-color="#B32B3A" offset="0%"></stop>
            <stop stop-color="#7C131B" offset="100%"></stop>
        </linearGradient>
        <linearGradient x1="50%" y1="0%" x2="50%" y2="100%" id="linearGradient-16">
            <stop stop-color="#D9434A" offset="0%"></stop>
            <stop stop-color="#B22024" offset="100%"></stop>
        </linearGradient>
        <linearGradient x1="50%" y1="0%" x2="50%" y2="100%" id="linearGradient-17">
            <stop stop-color="#C7C7C7" offset="0%"></stop>
            <stop stop-color="#FFFFFF" offset="100%"></stop>
        </linearGradient>
        <linearGradient x1="50%" y1="0%" x2="50%" y2="100%" id="linearGradient-18">
            <stop stop-color="#656666" offset="0%"></stop>
            <stop stop-color="#353636" offset="100%"></stop>
        </linearGradient>
        <linearGradient x1="50%" y1="0%" x2="50%" y2="100%" id="linearGradient-19">
            <stop stop-color="#656666" offset="0%"></stop>
            <stop stop-color="#353636" offset="100%"></stop>
        </linearGradient>
        <linearGradient x1="50%" y1="0%" x2="50%" y2="100%" id="linearGradient-20">
            <stop stop-color="#656666" offset="0%"></stop>
            <stop stop-color="#353636" offset="100%"></stop>
        </linearGradient>
        <linearGradient x1="50%" y1="0%" x2="50%" y2="100%" id="linearGradient-21">
            <stop stop-color="#656666" offset="0%"></stop>
            <stop stop-color="#353636" offset="100%"></stop>
        </linearGradient>
    </defs>
    <g id="Home-Page" stroke="none" stroke-width="1" fill="none" fill-rule="evenodd">
        <g transform="translate(-926.000000, -926.000000)" id="ic-web">
            <g transform="translate(971.000000, 940.000000)" id="icon_web">
                <rect id="Rectangle" fill-rule="nonzero" x="0" y="0" width="80" height="80"></rect>
                <g id="icon-02" transform="translate(9.586207, 12.919540)">
                    <g id="Group" stroke="#FFFFFF" stroke-linecap="round" stroke-linejoin="round" stroke-width="1.17647059">
                        <circle id="Oval" cx="1.68183908" cy="5.35172414" r="1.59448276"></circle>
                        <circle id="Oval" cx="61.3342529" cy="40.7742529" r="1.59448276"></circle>
                        <polygon id="Path" points="55.737931 1.13103448 54.7687356 1.6937931 53.7995402 2.25655172 53.7995402 1.13103448 53.7995402 0.00551724138 54.7687356 0.568275862"></polygon>
                        <g transform="translate(4.151724, 53.029885)" id="Path">
                            <line x1="3.28275862" y1="1.53195402" x2="0.218850575" y2="1.53195402"></line>
                            <line x1="1.7508046" y1="0" x2="1.7508046" y2="3.06390805"></line>
                        </g>
                    </g>
                    <g id="Rectangle" fill-rule="nonzero" fill="black" fill-opacity="1">
                        <use filter="url(#filter-2)" xlink:href="#path-1"></use>
                    </g>
                    <g id="Group" transform="translate(6.965517, 9.207663)">
                        <g>
                            <path d="M24.7301149,34.8493487 L24.7301149,35.2245211 L13.1935632,35.2245211 L13.1935632,34.9118774 C15.1632184,34.1927969 16.1636782,32.0042912 15.4445977,30.034636 C15.1006897,29.096705 14.3816092,28.3150958 13.4749425,27.908659 L24.6675862,27.908659 C22.7604598,28.7840613 21.9163218,31.0350958 22.7917241,32.9422222 C23.1668966,33.8176245 23.8547126,34.5054406 24.7301149,34.8493487 Z" id="Path" fill="url(#linearGradient-3)"></path>
                            <path d="M24.6363218,27.9399234 C23.6045977,28.4088889 22.8229885,29.3468199 22.5416092,30.4410728 L15.5383908,30.4410728 C15.2570115,29.3155556 14.4754023,28.4088889 13.4436782,27.9399234 L24.6363218,27.9399234 Z" id="Path" fill="#353636"></path>
                            <path d="M0,25.9390038 L0,28.1275096 C0,29.3468199 0.875402299,30.3160153 1.96965517,30.3160153 L35.8914943,30.3160153 C36.9857471,30.3160153 37.8611494,29.3468199 37.8611494,28.1275096 L37.8611494,25.9390038 L0,25.9390038 Z" id="Path" fill="url(#linearGradient-4)"></path>
                            <path d="M24.7301149,34.8493487 L24.7301149,35.2245211 L13.1935632,35.2245211 L13.1935632,34.9118774 C13.5062069,34.7868199 13.8188506,34.6304981 14.0689655,34.4429119 L24.0110345,34.4429119 C24.2298851,34.6304981 24.48,34.7555556 24.7301149,34.8493487 Z" id="Path" fill="#353636"></path>
                            <path d="M9.97333333,34.5679693 L27.9503448,34.5679693 C28.2629885,34.5679693 28.5131034,34.8180843 28.5131034,35.130728 L28.5131034,35.130728 C28.5131034,35.4433716 28.2629885,35.6934866 27.9503448,35.6934866 L9.97333333,35.6934866 C9.66068966,35.6934866 9.41057471,35.4433716 9.41057471,35.130728 L9.41057471,35.130728 C9.37931034,34.8493487 9.66068966,34.5679693 9.97333333,34.5679693 Z" id="Path" fill="url(#linearGradient-5)"></path>
                            <path d="M37.8611494,1.99049808 C37.8611494,0.896245211 36.9857471,0.0208429119 35.8914943,0.0208429119 L35.8914943,0.0208429119 L1.96965517,0.0208429119 C0.875402299,0.0208429119 0,0.896245211 0,1.99049808 L0,1.99049808 L0,26.376705 L37.8611494,26.376705 L37.8611494,1.99049808 L37.8611494,1.99049808 Z" id="Path" fill="url(#linearGradient-6)"></path>
                            <path d="M2.00091954,1.89670498 L35.8602299,1.89670498 C36.3917241,1.89670498 36.8294253,2.33440613 36.8294253,2.86590038 L36.8294253,23.8130268 C36.8294253,24.3445211 36.3917241,24.7822222 35.8602299,24.7822222 L2.00091954,24.7822222 C1.46942529,24.7822222 1.03172414,24.3445211 1.03172414,23.8130268 L1.03172414,2.86590038 C1.03172414,2.33440613 1.46942529,1.89670498 2.00091954,1.89670498 Z" id="Path" fill="url(#linearGradient-7)"></path>
                            <circle id="Oval" fill="url(#linearGradient-8)" cx="18.9149425" cy="0.958773946" r="1"></circle>
                            <circle id="Oval" fill="url(#linearGradient-8)" cx="18.9149425" cy="28.2213027" r="1.12551724"></circle>
                            <circle id="Oval" fill="url(#linearGradient-8)" cx="2.6262069" cy="2.99095785" r="1"></circle>
                            <circle id="Oval" fill="url(#linearGradient-8)" cx="3.72045977" cy="2.99095785" r="1"></circle>
                            <circle id="Oval" fill="url(#linearGradient-8)" cx="4.81471264" cy="2.99095785" r="1"></circle>
                            <g transform="translate(3.751724, 8.128736)" id="Path">
                                <path d="M1.00045977,4.46038314 L23.1043678,4.46038314 C23.542069,4.46038314 23.885977,4.80429119 23.885977,5.24199234 L23.885977,5.24199234 C23.885977,5.67969349 23.542069,6.02360153 23.1043678,6.02360153 L1.00045977,6.02360153 C0.562758621,6.02360153 0.218850575,5.67969349 0.218850575,5.24199234 L0.218850575,5.24199234 C0.218850575,4.80429119 0.562758621,4.46038314 1.00045977,4.46038314 Z" fill="url(#linearGradient-9)"></path>
                                <path d="M1.00045977,7.39923372 L15.382069,7.39923372 C15.8197701,7.39923372 16.1636782,7.74314176 16.1636782,8.18084291 L16.1636782,8.18084291 C16.1636782,8.61854406 15.8197701,8.96245211 15.382069,8.96245211 L1.00045977,8.96245211 C0.562758621,8.96245211 0.218850575,8.61854406 0.218850575,8.18084291 L0.218850575,8.18084291 C0.218850575,7.74314176 0.562758621,7.39923372 1.00045977,7.39923372 Z" fill="url(#linearGradient-10)"></path>
                                <path d="M1.00045977,0.0208429119 L15.382069,0.0208429119 C15.8197701,0.0208429119 16.1636782,0.364750958 16.1636782,0.802452107 L16.1636782,0.802452107 C16.1636782,1.24015326 15.8197701,1.5840613 15.382069,1.5840613 L1.00045977,1.5840613 C0.562758621,1.5840613 0.218850575,1.24015326 0.218850575,0.802452107 L0.218850575,0.802452107 C0.218850575,0.364750958 0.562758621,0.0208429119 1.00045977,0.0208429119 Z" fill="url(#linearGradient-10)"></path>
                                <path d="M1.00045977,10.3380843 L23.1043678,10.3380843 C23.542069,10.3380843 23.885977,10.6819923 23.885977,11.1196935 L23.885977,11.1196935 C23.885977,11.5573946 23.542069,11.9013027 23.1043678,11.9013027 L1.00045977,11.9013027 C0.562758621,11.9013027 0.218850575,11.5573946 0.218850575,11.1196935 L0.218850575,11.1196935 C0.218850575,10.6819923 0.562758621,10.3380843 1.00045977,10.3380843 Z" fill="url(#linearGradient-9)"></path>
                            </g>
                        </g>
                        <g transform="translate(25.324138, 5.679693)">
                            <path d="M0.937931034,0.250114943 L20.7595402,0.250114943 C21.1972414,0.250114943 21.5724138,0.594022989 21.5724138,1.06298851 L21.5724138,27.9190805 C21.5724138,28.3567816 21.2285057,28.731954 20.7595402,28.731954 L0.937931034,28.731954 C0.500229885,28.731954 0.125057471,28.388046 0.125057471,27.9190805 L0.125057471,1.06298851 C0.125057471,0.594022989 0.500229885,0.250114943 0.937931034,0.250114943 Z" id="Path" fill="url(#linearGradient-11)"></path>
                            <rect id="Rectangle" fill="url(#linearGradient-12)" x="1.21931034" y="2.93885057" width="19.2275862" height="23.0731034"></rect>
                            <circle id="Oval" fill="url(#linearGradient-8)" cx="10.7549425" cy="1.56321839" r="1"></circle>
                            <circle id="Oval" fill="url(#linearGradient-8)" cx="10.7549425" cy="27.3250575" r="1"></circle>
                            <path d="M4.00183908,5.94022989 L6.81563218,5.94022989 C7.06574713,5.94022989 7.2845977,6.15908046 7.2845977,6.4091954 L7.2845977,9.22298851 C7.2845977,9.47310345 7.06574713,9.69195402 6.81563218,9.69195402 L4.00183908,9.69195402 C3.75172414,9.69195402 3.53287356,9.47310345 3.53287356,9.22298851 L3.53287356,6.4091954 C3.53287356,6.15908046 3.75172414,5.94022989 4.00183908,5.94022989 Z" id="Path" fill="url(#linearGradient-8)"></path>
                            <path d="M17.6643678,9.69195402 L14.8505747,9.69195402 C14.6004598,9.69195402 14.3816092,9.47310345 14.3816092,9.22298851 L14.3816092,6.4091954 C14.3816092,6.15908046 14.6004598,5.94022989 14.8505747,5.94022989 L17.6643678,5.94022989 C17.9144828,5.94022989 18.1333333,6.15908046 18.1333333,6.4091954 L18.1333333,9.22298851 C18.1333333,9.47310345 17.9144828,9.69195402 17.6643678,9.69195402 Z" id="Path" fill="url(#linearGradient-8)"></path>
                            <path d="M9.44183908,5.94022989 L12.2556322,5.94022989 C12.5057471,5.94022989 12.7245977,6.15908046 12.7245977,6.4091954 L12.7245977,9.22298851 C12.7245977,9.47310345 12.5057471,9.69195402 12.2556322,9.69195402 L9.44183908,9.69195402 C9.19172414,9.69195402 8.97287356,9.47310345 8.97287356,9.22298851 L8.97287356,6.4091954 C8.97287356,6.15908046 9.16045977,5.94022989 9.44183908,5.94022989 Z" id="Path" fill="url(#linearGradient-8)"></path>
                            <path d="M4.00183908,12.5682759 L6.81563218,12.5682759 C7.06574713,12.5682759 7.2845977,12.7871264 7.2845977,13.0372414 L7.2845977,15.8510345 C7.2845977,16.1011494 7.06574713,16.32 6.81563218,16.32 L4.00183908,16.32 C3.75172414,16.32 3.53287356,16.1011494 3.53287356,15.8510345 L3.53287356,13.0372414 C3.53287356,12.7871264 3.75172414,12.5682759 4.00183908,12.5682759 Z" id="Path" fill="url(#linearGradient-8)"></path>
                            <path d="M17.6643678,16.32 L14.8505747,16.32 C14.6004598,16.32 14.3816092,16.1011494 14.3816092,15.8510345 L14.3816092,13.0372414 C14.3816092,12.7871264 14.6004598,12.5682759 14.8505747,12.5682759 L17.6643678,12.5682759 C17.9144828,12.5682759 18.1333333,12.7871264 18.1333333,13.0372414 L18.1333333,15.8510345 C18.1333333,16.1011494 17.9144828,16.32 17.6643678,16.32 Z" id="Path" fill="url(#linearGradient-8)"></path>
                            <path d="M9.44183908,12.5682759 L12.2556322,12.5682759 C12.5057471,12.5682759 12.7245977,12.7871264 12.7245977,13.0372414 L12.7245977,15.8510345 C12.7245977,16.1011494 12.5057471,16.32 12.2556322,16.32 L9.44183908,16.32 C9.19172414,16.32 8.97287356,16.1011494 8.97287356,15.8510345 L8.97287356,13.0372414 C8.97287356,12.7871264 9.16045977,12.5682759 9.44183908,12.5682759 Z" id="Path" fill="url(#linearGradient-8)"></path>
                            <path d="M4.00183908,19.1963218 L6.81563218,19.1963218 C7.06574713,19.1963218 7.2845977,19.4151724 7.2845977,19.6652874 L7.2845977,22.4790805 C7.2845977,22.7291954 7.06574713,22.948046 6.81563218,22.948046 L4.00183908,22.948046 C3.75172414,22.948046 3.53287356,22.7291954 3.53287356,22.4790805 L3.53287356,19.6652874 C3.53287356,19.4151724 3.75172414,19.1963218 4.00183908,19.1963218 Z" id="Path" fill="url(#linearGradient-8)"></path>
                            <path d="M17.6643678,22.948046 L14.8505747,22.948046 C14.6004598,22.948046 14.3816092,22.7291954 14.3816092,22.4790805 L14.3816092,19.6652874 C14.3816092,19.4151724 14.6004598,19.1963218 14.8505747,19.1963218 L17.6643678,19.1963218 C17.9144828,19.1963218 18.1333333,19.4151724 18.1333333,19.6652874 L18.1333333,22.4790805 C18.1333333,22.7291954 17.9144828,22.948046 17.6643678,22.948046 Z" id="Path" fill="url(#linearGradient-8)"></path>
                            <path d="M9.44183908,19.1963218 L12.2556322,19.1963218 C12.5057471,19.1963218 12.7245977,19.4151724 12.7245977,19.6652874 L12.7245977,22.4790805 C12.7245977,22.7291954 12.5057471,22.948046 12.2556322,22.948046 L9.44183908,22.948046 C9.19172414,22.948046 8.97287356,22.7291954 8.97287356,22.4790805 L8.97287356,19.6652874 C8.97287356,19.4151724 9.16045977,19.1963218 9.44183908,19.1963218 Z" id="Path" fill="url(#linearGradient-8)"></path>
                            <path d="M21.5724138,24.3236782 C21.5724138,24.3236782 21.6036782,24.4174713 21.2597701,24.5112644 C20.9158621,24.6050575 20.822069,24.7301149 20.822069,24.7301149" id="Path" fill="#010101" opacity="0.05"></path>
                        </g>
                        <rect id="Rectangle" fill="url(#linearGradient-13)" x="20.822069" y="17.8415326" width="1" height="3.00137931"></rect>
                        <rect id="Rectangle" fill="url(#linearGradient-14)" x="20.822069" y="21.9059004" width="1" height="1.71954023"></rect>
                        <path d="M22.4478161,14.902682 L29.0758621,14.902682 C29.8887356,14.902682 30.5452874,15.5592337 30.5452874,16.3721073 L30.5452874,34.2553257 C30.5452874,35.0681992 29.8887356,35.724751 29.0758621,35.724751 L22.4478161,35.724751 C21.6349425,35.724751 20.9783908,35.0681992 20.9783908,34.2553257 L20.9783908,16.3721073 C20.9783908,15.5592337 21.6349425,14.902682 22.4478161,14.902682 Z" id="Path" fill="url(#linearGradient-15)"></path>
                        <path d="M22.4478161,15.8718774 L29.0758621,15.8718774 C29.8887356,15.8718774 30.5452874,16.5284291 30.5452874,17.3413027 L30.5452874,33.348659 C30.5452874,34.1615326 29.8887356,34.8180843 29.0758621,34.8180843 L22.4478161,34.8180843 C21.6349425,34.8180843 20.9783908,34.1615326 20.9783908,33.348659 L20.9783908,17.3413027 C20.9783908,16.5284291 21.6349425,15.8718774 22.4478161,15.8718774 Z" id="Path" fill="url(#linearGradient-16)"></path>
                        <path d="M25.074023,15.3716475 L26.4496552,15.3716475 C26.5121839,15.3716475 26.5434483,15.4029119 26.5434483,15.4654406 L26.5434483,15.496705 C26.5434483,15.5592337 26.5121839,15.5904981 26.4496552,15.5904981 L25.074023,15.5904981 C25.0114943,15.5904981 24.9802299,15.5592337 24.9802299,15.496705 L24.9802299,15.4654406 C24.9802299,15.4029119 25.0427586,15.3716475 25.074023,15.3716475 Z" id="Path" fill="url(#linearGradient-17)"></path>
                        <circle id="Oval" fill="url(#linearGradient-8)" cx="27.1374713" cy="15.4654406" r="1"></circle>
                        <path d="M22.1977011,18.5918774 L29.325977,18.5918774 C29.6698851,18.5918774 29.92,18.8732567 29.92,19.1859004 L29.92,26.3141762 C29.92,26.6580843 29.6386207,26.9081992 29.325977,26.9081992 L22.1977011,26.9081992 C21.8537931,26.9081992 21.6036782,26.6268199 21.6036782,26.3141762 L21.6036782,19.1859004 C21.6036782,18.8732567 21.8850575,18.5918774 22.1977011,18.5918774 Z" id="Path" fill="url(#linearGradient-8)"></path>
                        <path d="M23.1356322,20.0300383 L24.5737931,20.0300383 C24.7301149,20.0300383 24.8864368,20.1550958 24.8864368,20.342682 L24.8864368,21.7808429 C24.8864368,21.9371648 24.7613793,22.0934866 24.5737931,22.0934866 L23.1356322,22.0934866 C22.9793103,22.0934866 22.8229885,21.9684291 22.8229885,21.7808429 L22.8229885,20.342682 C22.8229885,20.1863602 22.948046,20.0300383 23.1356322,20.0300383 Z" id="Path" fill="url(#linearGradient-18)"></path>
                        <g transform="translate(22.822989, 20.061303)" id="Path">
                            <path d="M0.187586207,2.53241379 L5.5337931,2.53241379 C5.62758621,2.53241379 5.72137931,2.65747126 5.72137931,2.78252874 L5.72137931,2.78252874 C5.72137931,2.90758621 5.62758621,3.03264368 5.5337931,3.03264368 L0.187586207,3.03264368 C0.0937931034,3.03264368 0,2.90758621 0,2.78252874 L0,2.78252874 C0,2.65747126 0.0937931034,2.53241379 0.187586207,2.53241379 Z" fill="url(#linearGradient-19)"></path>
                            <path d="M0.187586207,3.5016092 L3.65793103,3.5016092 C3.75172414,3.5016092 3.84551724,3.62666667 3.84551724,3.75172414 L3.84551724,3.75172414 C3.84551724,3.87678161 3.75172414,4.00183908 3.65793103,4.00183908 L0.187586207,4.00183908 C0.0937931034,4.00183908 0,3.87678161 0,3.75172414 L0,3.75172414 C0,3.5954023 0.0937931034,3.5016092 0.187586207,3.5016092 Z" fill="url(#linearGradient-20)"></path>
                            <path d="M2.8137931,0.0937931034 L6.28413793,0.0937931034 C6.37793103,0.0937931034 6.47172414,0.218850575 6.47172414,0.343908046 L6.47172414,0.343908046 C6.47172414,0.468965517 6.37793103,0.594022989 6.28413793,0.594022989 L2.8137931,0.594022989 C2.72,0.594022989 2.6262069,0.468965517 2.6262069,0.343908046 L2.6262069,0.343908046 C2.6262069,0.218850575 2.72,0.0937931034 2.8137931,0.0937931034 Z" fill="url(#linearGradient-20)"></path>
                            <path d="M2.8137931,1.00045977 L4.53333333,1.00045977 C4.62712644,1.00045977 4.72091954,1.12551724 4.72091954,1.25057471 L4.72091954,1.25057471 C4.72091954,1.37563218 4.62712644,1.50068966 4.53333333,1.50068966 L2.8137931,1.50068966 C2.72,1.50068966 2.6262069,1.37563218 2.6262069,1.25057471 L2.6262069,1.25057471 C2.6262069,1.12551724 2.72,1.00045977 2.8137931,1.00045977 Z" fill="url(#linearGradient-21)"></path>
                            <path d="M0.187586207,4.43954023 L5.5337931,4.43954023 C5.62758621,4.43954023 5.72137931,4.5645977 5.72137931,4.68965517 L5.72137931,4.68965517 C5.72137931,4.81471264 5.62758621,4.93977011 5.5337931,4.93977011 L0.187586207,4.93977011 C0.0937931034,4.93977011 0,4.81471264 0,4.68965517 L0,4.68965517 C0,4.5645977 0.0937931034,4.43954023 0.187586207,4.43954023 Z" fill="url(#linearGradient-19)"></path>
                        </g>
                    </g>
                </g>
            </g>
        </g>
    </g>
</svg>