<?xml version="1.0" encoding="UTF-8"?>
<svg width="167px" height="146px" viewBox="0 0 167 146" version="1.1" xmlns="http://www.w3.org/2000/svg" xmlns:xlink="http://www.w3.org/1999/xlink">
    <title>ic-more</title>
    <defs>
        <rect id="path-1" x="6.04597701" y="27.0804598" width="49.6551724" height="28.045977" rx="14.0229885"></rect>
        <filter x="-187.3%" y="-288.8%" width="474.6%" height="763.2%" filterUnits="objectBoundingBox" id="filter-2">
            <feOffset dx="0" dy="12" in="SourceAlpha" result="shadowOffsetOuter1"></feOffset>
            <feGaussianBlur stdDeviation="29" in="shadowOffsetOuter1" result="shadowBlurOuter1"></feGaussianBlur>
            <feColorMatrix values="0 0 0 0 0   0 0 0 0 0   0 0 0 0 0  0 0 0 0.35 0" type="matrix" in="shadowBlurOuter1"></feColorMatrix>
        </filter>
        <linearGradient x1="0%" y1="49.9446705%" x2="100%" y2="49.9446705%" id="linearGradient-3">
            <stop stop-color="#ED1C24" offset="0%"></stop>
            <stop stop-color="#771F2E" offset="100%"></stop>
        </linearGradient>
        <linearGradient x1="50%" y1="0%" x2="50%" y2="100%" id="linearGradient-4">
            <stop stop-color="#656666" offset="0%"></stop>
            <stop stop-color="#353636" offset="100%"></stop>
        </linearGradient>
        <linearGradient x1="50%" y1="0%" x2="50%" y2="100%" id="linearGradient-5">
            <stop stop-color="#B32B3A" offset="0%"></stop>
            <stop stop-color="#7C131B" offset="100%"></stop>
        </linearGradient>
        <linearGradient x1="50%" y1="0%" x2="50%" y2="100%" id="linearGradient-6">
            <stop stop-color="#C7C7C7" offset="0%"></stop>
            <stop stop-color="#FFFFFF" offset="100%"></stop>
        </linearGradient>
        <linearGradient x1="50%" y1="0%" x2="50%" y2="100%" id="linearGradient-7">
            <stop stop-color="#C7C7C7" offset="0%"></stop>
            <stop stop-color="#FFFFFF" offset="100%"></stop>
        </linearGradient>
        <linearGradient x1="50%" y1="0%" x2="50%" y2="100%" id="linearGradient-8">
            <stop stop-color="#C7C7C7" offset="0%"></stop>
            <stop stop-color="#FFFFFF" offset="100%"></stop>
        </linearGradient>
    </defs>
    <g id="Home-Page" stroke="none" stroke-width="1" fill="none" fill-rule="evenodd">
        <g transform="translate(-928.000000, -1393.000000)" id="ic-more">
            <g transform="translate(971.000000, 1400.000000)" id="icon_more">
                <rect id="Rectangle" fill-rule="nonzero" x="0" y="0" width="80" height="80"></rect>
                <g id="icon-06" transform="translate(9.586207, 12.919540)">
                    <g id="Group" stroke="#FFFFFF" stroke-linecap="round" stroke-linejoin="round" stroke-width="1.17647059">
                        <circle id="Oval" cx="1.68183908" cy="5.35172414" r="1.59448276"></circle>
                        <circle id="Oval" cx="61.3342529" cy="40.7742529" r="1.59448276"></circle>
                        <polygon id="Path" points="55.737931 1.13103448 54.7687356 1.6937931 53.7995402 2.25655172 53.7995402 1.13103448 53.7995402 0.00551724138 54.7687356 0.568275862"></polygon>
                        <g transform="translate(4.151724, 53.029885)" id="Path">
                            <line x1="3.28275862" y1="1.53195402" x2="0.218850575" y2="1.53195402"></line>
                            <line x1="1.7508046" y1="0" x2="1.7508046" y2="3.06390805"></line>
                        </g>
                    </g>
                    <g id="Rectangle" fill-rule="nonzero" fill="black" fill-opacity="1">
                        <use filter="url(#filter-2)" xlink:href="#path-1"></use>
                    </g>
                    <g id="Group" transform="translate(6.965517, 7.644444)">
                        <path d="M0,6.61762452 L0,37.7881992 C0,38.3822222 0.500229885,38.8824521 1.09425287,38.8824521 L45.8022989,38.8824521 C46.3963218,38.8824521 46.8965517,38.3822222 46.8965517,37.7881992 L46.8965517,6.61762452 L0,6.61762452 Z" id="Path" fill="url(#linearGradient-3)"></path>
                        <path d="M7.06574713,9.49394636 L11.5678161,9.49394636 C13.3186207,9.49394636 14.7567816,10.9321073 14.7567816,12.6829119 L14.7567816,12.6829119 C14.7567816,14.4337165 13.3186207,15.8718774 11.5678161,15.8718774 L7.06574713,15.8718774 C5.31494253,15.8718774 3.87678161,14.4337165 3.87678161,12.6829119 L3.87678161,12.6829119 C3.87678161,10.9321073 5.31494253,9.49394636 7.06574713,9.49394636 Z" id="Path" fill="url(#linearGradient-4)"></path>
                        <path d="M39.8308046,15.8718774 L35.3287356,15.8718774 C33.577931,15.8718774 32.1397701,14.4337165 32.1397701,12.6829119 L32.1397701,12.6829119 C32.1397701,10.9321073 33.577931,9.49394636 35.3287356,9.49394636 L39.8308046,9.49394636 C41.5816092,9.49394636 43.0197701,10.9321073 43.0197701,12.6829119 L43.0197701,12.6829119 C43.0197701,14.4649808 41.5816092,15.8718774 39.8308046,15.8718774 Z" id="Path" fill="url(#linearGradient-4)"></path>
                        <path d="M25.6993103,15.8718774 L21.1972414,15.8718774 C19.4464368,15.8718774 18.0082759,14.4337165 18.0082759,12.6829119 L18.0082759,12.6829119 C18.0082759,10.9321073 19.4464368,9.49394636 21.1972414,9.49394636 L25.6993103,9.49394636 C27.4501149,9.49394636 28.8882759,10.9321073 28.8882759,12.6829119 L28.8882759,12.6829119 C28.8882759,14.4649808 27.4501149,15.8718774 25.6993103,15.8718774 Z" id="Path" fill="url(#linearGradient-4)"></path>
                        <path d="M7.06574713,18.7169349 L11.5678161,18.7169349 C13.3186207,18.7169349 14.7567816,20.1550958 14.7567816,21.9059004 L14.7567816,21.9059004 C14.7567816,23.656705 13.3186207,25.0948659 11.5678161,25.0948659 L7.06574713,25.0948659 C5.31494253,25.0948659 3.87678161,23.656705 3.87678161,21.9059004 L3.87678161,21.9059004 C3.87678161,20.1550958 5.31494253,18.7169349 7.06574713,18.7169349 Z" id="Path" fill="url(#linearGradient-4)"></path>
                        <path d="M39.8308046,25.1261303 L35.3287356,25.1261303 C33.577931,25.1261303 32.1397701,23.6879693 32.1397701,21.9371648 L32.1397701,21.9371648 C32.1397701,20.1863602 33.577931,18.7481992 35.3287356,18.7481992 L39.8308046,18.7481992 C41.5816092,18.7481992 43.0197701,20.1863602 43.0197701,21.9371648 L43.0197701,21.9371648 C43.0197701,23.6879693 41.5816092,25.1261303 39.8308046,25.1261303 Z" id="Path" fill="url(#linearGradient-4)"></path>
                        <path d="M25.6993103,25.1261303 L21.1972414,25.1261303 C19.4464368,25.1261303 18.0082759,23.6879693 18.0082759,21.9371648 L18.0082759,21.9371648 C18.0082759,20.1863602 19.4464368,18.7481992 21.1972414,18.7481992 L25.6993103,18.7481992 C27.4501149,18.7481992 28.8882759,20.1863602 28.8882759,21.9371648 L28.8882759,21.9371648 C28.8882759,23.6879693 27.4501149,25.1261303 25.6993103,25.1261303 Z" id="Path" fill="url(#linearGradient-4)"></path>
                        <path d="M7.06574713,27.9711877 L11.5678161,27.9711877 C13.3186207,27.9711877 14.7567816,29.4093487 14.7567816,31.1601533 L14.7567816,31.1601533 C14.7567816,32.9109579 13.3186207,34.3491188 11.5678161,34.3491188 L7.06574713,34.3491188 C5.31494253,34.3491188 3.87678161,32.9109579 3.87678161,31.1601533 L3.87678161,31.1601533 C3.87678161,29.4093487 5.31494253,27.9711877 7.06574713,27.9711877 Z" id="Path" fill="url(#linearGradient-4)"></path>
                        <path d="M39.8308046,34.3491188 L35.3287356,34.3491188 C33.577931,34.3491188 32.1397701,32.9109579 32.1397701,31.1601533 L32.1397701,31.1601533 C32.1397701,29.4093487 33.577931,27.9711877 35.3287356,27.9711877 L39.8308046,27.9711877 C41.5816092,27.9711877 43.0197701,29.4093487 43.0197701,31.1601533 L43.0197701,31.1601533 C43.0197701,32.9422222 41.5816092,34.3491188 39.8308046,34.3491188 Z" id="Path" fill="#000000" opacity="0.150878906"></path>
                        <path d="M25.6993103,34.3491188 L21.1972414,34.3491188 C19.4464368,34.3491188 18.0082759,32.9109579 18.0082759,31.1601533 L18.0082759,31.1601533 C18.0082759,29.4093487 19.4464368,27.9711877 21.1972414,27.9711877 L25.6993103,27.9711877 C27.4501149,27.9711877 28.8882759,29.4093487 28.8882759,31.1601533 L28.8882759,31.1601533 C28.8882759,32.9422222 27.4501149,34.3491188 25.6993103,34.3491188 Z" id="Path" fill="url(#linearGradient-4)"></path>
                        <path d="M0,1.11509579 L0,6.77394636 L46.8965517,6.77394636 L46.8965517,1.11509579 C46.8965517,0.521072797 46.3963218,0.0208429119 45.8022989,0.0208429119 C45.8022989,0.0208429119 45.8022989,0.0208429119 45.8022989,0.0208429119 L1.09425287,0.0208429119 C0.500229885,0.0208429119 0,0.489808429 0,1.11509579 C0,1.11509579 0,1.11509579 0,1.11509579 Z" id="Path" fill="url(#linearGradient-5)"></path>
                        <path d="M13.1310345,9.18130268 L12.6308046,8.6810728 C12.5370115,8.58727969 12.3494253,8.58727969 12.2556322,8.6810728 C12.2556322,8.6810728 12.2556322,8.6810728 12.2556322,8.6810728 L9.0354023,11.8700383 L7.69103448,10.4944061 C7.59724138,10.400613 7.40965517,10.400613 7.31586207,10.4944061 L6.78436782,10.994636 C6.69057471,11.0884291 6.69057471,11.2760153 6.78436782,11.3698084 L8.84781609,13.4645211 C8.9416092,13.5583142 9.1291954,13.5583142 9.22298851,13.4645211 L13.1310345,9.58773946 C13.2248276,9.46268199 13.2248276,9.30636015 13.1310345,9.18130268 C13.1310345,9.21256705 13.1310345,9.21256705 13.1310345,9.18130268 Z" id="Path" fill="url(#linearGradient-6)"></path>
                        <path d="M27.2937931,9.18130268 L26.7935632,8.6810728 C26.6997701,8.58727969 26.5121839,8.58727969 26.4183908,8.6810728 C26.4183908,8.6810728 26.4183908,8.6810728 26.4183908,8.6810728 L23.1981609,11.8700383 L21.8537931,10.4944061 C21.76,10.400613 21.5724138,10.400613 21.4786207,10.4944061 L20.9471264,10.994636 C20.8533333,11.0884291 20.8533333,11.2760153 20.9471264,11.3698084 L23.0105747,13.4645211 C23.1043678,13.5583142 23.291954,13.5583142 23.3857471,13.4645211 L27.2937931,9.58773946 C27.4188506,9.46268199 27.4188506,9.30636015 27.2937931,9.18130268 C27.3250575,9.21256705 27.2937931,9.21256705 27.2937931,9.18130268 Z" id="Path" fill="url(#linearGradient-7)"></path>
                        <path d="M41.988046,9.18130268 L41.4878161,8.6810728 C41.394023,8.58727969 41.2064368,8.58727969 41.1126437,8.6810728 C41.1126437,8.6810728 41.1126437,8.6810728 41.1126437,8.6810728 L37.8924138,11.8700383 L36.548046,10.4944061 C36.4542529,10.400613 36.2666667,10.400613 36.1728736,10.4944061 L35.6413793,10.994636 C35.5475862,11.0884291 35.5475862,11.2760153 35.6413793,11.3698084 L37.7048276,13.4645211 C37.7986207,13.5583142 37.9862069,13.5583142 38.08,13.4645211 L41.988046,9.58773946 C42.0818391,9.46268199 42.0818391,9.30636015 41.988046,9.18130268 C41.988046,9.21256705 41.988046,9.21256705 41.988046,9.18130268 Z" id="Path" fill="url(#linearGradient-6)"></path>
                        <path d="M12.8809195,18.3730268 L12.3806897,17.8727969 C12.2868966,17.7790038 12.0993103,17.7790038 12.0055172,17.8727969 C12.0055172,17.8727969 12.0055172,17.8727969 12.0055172,17.8727969 L8.78528736,21.0617625 L7.44091954,19.6861303 C7.34712644,19.5923372 7.15954023,19.5923372 7.06574713,19.6861303 L6.53425287,20.1863602 C6.44045977,20.2801533 6.44045977,20.4677395 6.53425287,20.5615326 L8.59770115,22.6562452 C8.69149425,22.7500383 8.87908046,22.7500383 8.97287356,22.6562452 L12.8809195,18.7794636 C12.9747126,18.6544061 12.9747126,18.4980843 12.8809195,18.3730268 C12.8809195,18.3730268 12.8809195,18.3730268 12.8809195,18.3730268 Z" id="Path" fill="#FFFFFF"></path>
                        <path d="M27.0749425,18.3730268 L26.5747126,17.8727969 C26.4809195,17.7790038 26.2933333,17.7790038 26.1995402,17.8727969 C26.1995402,17.8727969 26.1995402,17.8727969 26.1995402,17.8727969 L22.9793103,21.0617625 L21.6349425,19.6861303 C21.5411494,19.5923372 21.3535632,19.5923372 21.2597701,19.6861303 L20.7282759,20.1863602 C20.6344828,20.2801533 20.6344828,20.4677395 20.7282759,20.5615326 L22.7917241,22.6562452 C22.8855172,22.7500383 23.0731034,22.7500383 23.1668966,22.6562452 L27.0749425,18.7794636 C27.1687356,18.6544061 27.1687356,18.4980843 27.0749425,18.3730268 C27.0749425,18.3730268 27.0749425,18.3730268 27.0749425,18.3730268 Z" id="Path" fill="#FFFFFF"></path>
                        <path d="M41.737931,18.3730268 L41.2377011,17.8727969 C41.143908,17.7790038 40.9563218,17.7790038 40.8625287,17.8727969 C40.8625287,17.8727969 40.8625287,17.8727969 40.8625287,17.8727969 L37.6422989,21.0617625 L36.297931,19.6861303 C36.2041379,19.5923372 36.0165517,19.5923372 35.9227586,19.6861303 L35.3912644,20.1863602 C35.2974713,20.2801533 35.2974713,20.4677395 35.3912644,20.5615326 L37.4547126,22.6562452 C37.5485057,22.7500383 37.736092,22.7500383 37.8298851,22.6562452 L41.737931,18.7794636 C41.8317241,18.6544061 41.8317241,18.4980843 41.737931,18.3730268 C41.737931,18.3730268 41.737931,18.3730268 41.737931,18.3730268 Z" id="Path" fill="url(#linearGradient-6)"></path>
                        <path d="M12.8809195,27.5334866 L12.3806897,27.0332567 C12.2868966,26.9394636 12.0993103,26.9394636 12.0055172,27.0332567 C12.0055172,27.0332567 12.0055172,27.0332567 12.0055172,27.0332567 L8.78528736,30.2222222 L7.44091954,28.84659 C7.34712644,28.7527969 7.15954023,28.7527969 7.06574713,28.84659 L6.53425287,29.3468199 C6.44045977,29.440613 6.44045977,29.6281992 6.53425287,29.7219923 L8.59770115,31.816705 C8.69149425,31.9104981 8.87908046,31.9104981 8.97287356,31.816705 L12.8809195,27.9399234 C12.9747126,27.7836015 12.9747126,27.6272797 12.8809195,27.5334866 C12.8809195,27.5334866 12.8809195,27.5334866 12.8809195,27.5334866 Z" id="Path" fill="url(#linearGradient-6)"></path>
                        <path d="M27.0749425,27.5334866 L26.5747126,27.0332567 C26.4809195,26.9394636 26.2933333,26.9394636 26.1995402,27.0332567 C26.1995402,27.0332567 26.1995402,27.0332567 26.1995402,27.0332567 L22.9793103,30.2222222 L21.6349425,28.84659 C21.5411494,28.7527969 21.3535632,28.7527969 21.2597701,28.84659 L20.7282759,29.3468199 C20.6344828,29.440613 20.6344828,29.6281992 20.7282759,29.7219923 L22.7917241,31.816705 C22.8855172,31.9104981 23.0731034,31.9104981 23.1668966,31.816705 L27.0749425,27.9399234 C27.1687356,27.7836015 27.1687356,27.6272797 27.0749425,27.5334866 C27.0749425,27.5334866 27.0749425,27.5334866 27.0749425,27.5334866 Z" id="Path" fill="url(#linearGradient-6)"></path>
                    </g>
                    <g id="Group" transform="translate(10.091954, 9.885057)" fill="url(#linearGradient-8)">
                        <circle id="Oval" cx="1.21931034" cy="1.15678161" r="1.09425287"></circle>
                        <circle id="Oval" cx="4.5645977" cy="1.15678161" r="1.09425287"></circle>
                        <circle id="Oval" cx="7.90988506" cy="1.15678161" r="1.09425287"></circle>
                    </g>
                </g>
            </g>
        </g>
    </g>
</svg>